<svg width="216" height="48" viewBox="0 0 216 48" fill="none" xmlns="http://www.w3.org/2000/svg">
<g clip-path="url(#clip0_1_13)">
<path d="M44.8063 8L38.7693 18.5366L32.7323 8H44.8063Z" fill="#004EEB"/>
<path d="M16.2765 8H8L26.4031 40L36.6271 22.2439L28.4479 8H20.2688L28.4479 22.2439L26.5005 25.7561L16.2765 8Z" fill="#004EEB"/>
<path d="M141.734 13.5688V13.2683H144.195L148.519 32.3515H149.15L153.172 13.2683H157.554L161.576 32.3515H162.207L166.56 13.2683H168.992V13.5688L164.098 34.3376H159.656L155.692 15.2545H155.061L151.068 34.3376H146.626L141.732 13.5688H141.734Z" fill="#004EEB"/>
<path d="M168.543 26.512C168.543 21.5758 172.026 18.5966 176.048 18.5966C180.732 18.5966 183.464 22.1182 183.223 26.3618L183.162 27.4153H170.884C171.183 30.4863 172.954 32.5934 176.138 32.5934C178.208 32.5934 179.831 31.7505 180.911 29.9751L182.682 31.1184C181.51 33.286 179.14 34.7317 176.138 34.7317C171.485 34.7317 168.543 31.2706 168.543 26.5139V26.512ZM180.911 25.3082C180.911 22.6899 178.87 20.6725 176.048 20.6725C173.077 20.6725 171.335 22.6899 170.944 25.3082H180.911Z" fill="#004EEB"/>
<path d="M184.423 30.0629L186.614 29.462C187.124 31.5691 188.866 32.6226 190.967 32.6226C193.429 32.6226 194.84 31.5691 194.84 30.1234C194.84 28.9196 194.028 28.1977 192.289 27.8055L189.738 27.2339C187.455 26.7227 185.534 25.6691 185.534 22.9299C185.534 20.4911 187.607 18.5947 191.148 18.5947C194.151 18.5947 196.463 20.2199 197.062 22.9591L194.931 23.562C194.632 21.8158 193.129 20.6725 191.148 20.6725C189.167 20.6725 187.726 21.6656 187.726 22.9299C187.726 24.1941 188.627 24.7658 190.308 25.158L192.89 25.7589C195.291 26.3305 197.122 27.5363 197.122 30.1234C197.122 32.8626 194.6 34.7278 190.849 34.7278C187.097 34.7278 185.085 32.7417 184.423 30.0629Z" fill="#004EEB"/>
<path d="M200.857 30.5448V20.973H198.214V18.9868H200.917V15.4944H203.198V18.9868H208V20.973H203.198V30.5448C203.198 31.7798 203.949 32.2598 204.879 32.2598H207.79V34.3357H204.519C202.507 34.3357 200.857 33.0402 200.857 30.5428V30.5448Z" fill="#004EEB"/>
<path d="M52.2068 13.7795V13.2683H56.3204L61.7243 30.9369H62.3547L67.8189 13.2683H71.9325V13.7795L65.2969 34.3376H58.8735L52.2087 13.7795H52.2068Z" fill="black"/>
<path d="M70.1637 26.5412C70.1637 21.8158 73.6761 18.3547 78.5097 18.3547C83.3434 18.3547 86.8557 21.8158 86.8557 26.5412C86.8557 31.2667 83.1332 34.7298 78.5097 34.7298C73.8862 34.7298 70.1637 31.2979 70.1637 26.5412ZM78.5097 31.2979C81.0608 31.2979 83.0437 29.462 83.0437 26.5412C83.0437 23.6205 81.0628 21.7846 78.5097 21.7846C75.9567 21.7846 73.9757 23.7415 73.9757 26.5412C73.9757 29.341 75.9567 31.2979 78.5097 31.2979Z" fill="black"/>
<path d="M110.224 26.4827C110.224 21.7866 113.466 18.3547 118.15 18.3547C122.834 18.3547 125.685 21.9661 125.626 25.9091L125.597 27.8055H113.92C114.34 30.1526 115.99 31.4481 118.243 31.4481C119.895 31.4481 121.335 30.576 121.997 29.5224L124.729 31.3896C123.437 33.3757 121.277 34.7298 118.243 34.7298C113.651 34.7298 110.228 31.4189 110.228 26.4827H110.224ZM121.993 24.7678C121.904 23.0508 120.341 21.4568 118.15 21.4568C115.959 21.4568 114.517 22.7211 114.007 24.7678H121.993Z" fill="black"/>
<path d="M132.665 28.0767L129.183 34.3376H125.309V33.8264L129.514 26.3305L125.76 19.258V18.7449H129.693L132.665 24.6761V28.0767Z" fill="black"/>
<path d="M134.26 24.6761L137.171 18.7449H141.106V19.258L137.352 26.4515L141.555 33.8264V34.3376H137.652L134.26 28.0767V24.6761Z" fill="black"/>
<path d="M96.2214 21.9056L97.7665 18.7449H90.2514C89.4243 18.7449 88.7549 19.418 88.7549 20.2452V34.3357H92.5067L92.4833 21.9036H96.2234L96.2214 21.9056Z" fill="black"/>
<path d="M109.384 21.9056V18.7449H105.001V15.2525H101.339V18.7449H99.403L97.8579 21.9056H101.281V29.7312C101.281 33.1319 103.353 34.3357 106.114 34.3357H109.146V30.935H106.535C105.605 30.935 105.003 30.5136 105.003 29.3703V21.9056H109.386H109.384Z" fill="black"/>
</g>
<defs>
<clipPath id="clip0_1_13">
<rect width="200" height="32" fill="white" transform="translate(8 8)"/>
</clipPath>
</defs>
</svg>
