<svg width="289" height="170" viewBox="0 0 289 170" fill="none" xmlns="http://www.w3.org/2000/svg">
<g clip-path="url(#clip0_214_1199)">
<path d="M0 4C0 1.79086 1.79086 0 4 0H269C280.046 0 289 8.95431 289 20V150C289 161.046 280.046 170 269 170H20C8.9543 170 0 161.046 0 150V4Z" fill="#F6F7FB"/>
<rect width="289" height="170" fill="#DDDCF6"/>
<path d="M217.276 137.812C216.213 139.786 214.164 141 211.924 141H79.0728C76.7873 141 74.6962 139.718 73.6599 137.68C72.6237 135.643 72.8192 133.198 74.1663 131.35L100.737 94.9217C101.882 93.3393 103.704 92.4286 105.64 92.4286C107.576 92.4286 109.404 93.3548 110.548 94.9232L122.869 111.813L158.285 59.0296C159.427 57.0246 161.325 56 163.337 56C165.349 56 167.266 57.0139 168.389 58.7037L216.976 131.561C218.225 133.411 218.339 135.801 217.276 137.812Z" fill="#B7B2F7"/>
<circle cx="84" cy="48" r="19" fill="#CAC7F7"/>
</g>
<defs>
</defs>
</svg>
